<svg width="9" height="9" viewBox="0 0 9 9" fill="none" xmlns="http://www.w3.org/2000/svg">
<path fill-rule="evenodd" clip-rule="evenodd" d="M0.414626 8.79863C0.170548 8.55455 0.170548 8.15883 0.414626 7.91475L3.72219 4.60669L0.414625 1.29863C0.189323 1.07333 0.171992 0.718807 0.362632 0.473625L0.414625 0.414745C0.658703 0.170668 1.05443 0.170668 1.29851 0.414745L4.60657 3.72231L7.91463 0.414745C8.13993 0.189442 8.49445 0.172113 8.73963 0.362753L8.79851 0.414745C9.04259 0.658823 9.04259 1.05455 8.79851 1.29863L5.49094 4.60669L8.79851 7.91475C9.02381 8.14005 9.04114 8.49457 8.8505 8.73975L8.79851 8.79863C8.55443 9.04271 8.1587 9.04271 7.91463 8.79863L4.60657 5.49106L1.29851 8.79863C1.07321 9.02393 0.718687 9.04126 0.473505 8.85062L0.414626 8.79863Z" fill="#3CC8AE"/>
</svg>
